<svg xmlns="http://www.w3.org/2000/svg" version="1.1" xmlns:xlink="http://www.w3.org/1999/xlink" xmlns:svgjs="http://svgjs.dev/svgjs" width="1000" height="1125" viewBox="0 0 1000 1125"><g transform="matrix(1,0,0,1,1.7053025658242404e-13,0)"><svg viewBox="0 0 320 360" data-background-color="#ffffff" preserveAspectRatio="xMidYMid meet" height="1125" width="1000" xmlns="http://www.w3.org/2000/svg" xmlns:xlink="http://www.w3.org/1999/xlink"><g id="tight-bounds" transform="matrix(1,0,0,1,0,0)"><svg viewBox="0 0 320 360" height="360" width="320"><g><svg></svg></g><g><svg viewBox="0 0 320 360" height="360" width="320"><g><path xmlns="http://www.w3.org/2000/svg" d="M20.961 227.22l3.726 4.658-1.863-6.056c-0.466-2.795-3.726 0.466-1.863 1.398M25.153 224.425c1.397 2.329 2.795 4.658 2.795 6.987 0 3.261 2.795 4.658 5.123 5.589-3.261-3.726-5.124-13.974-7.918-12.576M204.017 26.929c7.918 0 15.371-0.932 23.756 0.931 20.495 5.124 37.729 15.371 49.374 29.811l32.606 52.169c1.397 13.042 4.192 27.482 3.726 43.319 3.261 0 2.795-4.658 6.521-5.59-3.726 9.316-5.59 20.961-6.521 34.469-2.329-7.453 0-18.632 0.466-24.687-3.261 5.124-5.124 1.397-5.124-0.932 0.466-3.726-1.397-3.261-2.795-4.658-5.124-4.658-8.384-9.782-12.11-17.7 2.329-6.055 2.795-14.905-4.658-19.563-2.329-1.397-5.124-3.726-6.521-7.453-1.863-5.124-5.124-11.179-4.193-19.097 0.466-2.329-6.987 5.124-11.179 1.863-18.166-12.576-36.332-27.016-58.224-39.127-11.645 0-20.029-4.192-24.221-9.316-3.726-4.658-0.932-10.713 4.658-11.179 3.261 0 6.987-0.932 9.782 0.932 0.466-1.863 2.329-4.192 4.657-4.192M157.904 16.215l0.932 0.466c4.658 0.932 6.987 7.453 12.11 5.124 0 3.261 0.466 6.521-0.466 8.85-1.397 3.726-5.59 3.726-8.85 3.726-31.208-1.863-49.374 11.179-68.471 22.358-5.124 3.261-10.713 5.59-14.906 9.782-20.029 18.632-41.921 35.866-47.045 70.335l-4.192 38.195c-0.466 4.192-5.124 8.384-4.192 13.508l3.26 22.824c-3.261-3.261-5.124 0.932-4.192 2.795 0.466 1.397 2.329 6.055 5.124 1.863 3.726 6.987 7.453 20.495 12.576 26.55 15.837 18.632 36.332 35.4 53.101 52.169 4.192-0.932 7.453-0.932 8.384-3.727 1.397 2.795-1.397 5.59-3.726 6.056 7.453 4.658 15.837 8.85 27.016 9.781 14.44 0.932 27.948 3.261 40.524 6.522 6.521-1.863 13.042-2.795 20.029-3.261 2.329 0 3.726-3.726 6.521-4.658l0.466-4.658c2.795 4.192 2.329-1.397 0.466-4.192 3.261 2.795 4.192 5.124 5.589 6.987 0-1.397 3.726-6.521 3.727-0.466l0.931-6.055c1.397-0.932 1.863 5.124 3.261 0.931 1.397-4.192 4.192-0.932 6.987-2.329-0.932 1.863-0.466 5.59 2.794 3.261l3.727-3.261c2.329 5.59 6.055 3.261 7.918 2.329 20.495-13.042 40.99-28.413 60.553-43.784l-0.466 6.055 2.329-7.453c2.329 2.329 4.192 0.466 5.124-0.931 2.795-4.658 6.521-9.316 12.577-13.508-7.453 20.029-16.303 35.866-27.482 48.908l-4.658 5.59c0 3.261-0.932 7.453-4.658 7.918-1.863 0.466-5.59-0.932-8.384 1.863-1.397 1.863 3.261 5.59-0.466 2.795-3.261-2.329-6.521 0-10.248 0.932-2.795 0.932 1.863 3.726 2.795 5.589 0.932 1.863 1.863 3.726 1.398 6.056l-5.124-5.59c-6.055 3.261-9.782 9.316-14.906 13.974-2.329 1.863-1.397 5.124-1.397 7.918-3.261 0-6.987-0.932-8.85 0.932-1.397 1.863-0.932 4.658-0.932 7.453-4.658-0.466-5.124-7.453-9.315-6.056-4.192 0.932-8.85 1.397-12.577 3.727 2.795 5.59-4.658 2.329-3.726 3.26-6.987-4.192-13.042-7.453-20.495-4.658-15.837-5.124-35.4-2.795-49.84-0.931 0-2.329 0.466-4.658-0.466-5.124-0.932 2.329-3.726 1.397-3.26 1.397-8.85-6.055-17.7-9.782-27.016-14.905-8.384 0.932-16.303-3.261-18.632-5.59-6.521-6.055-13.974-2.795-20.029-4.192-13.042-3.261-17.7-16.769-19.098-26.084-0.932-4.658-4.658-6.521-6.055-6.056-6.055-19.563-15.371-37.263-22.824-55.429-1.863-4.658-1.397-9.316-1.397-14.44 2.329 0.932 4.658 0.466 4.192-2.794-2.329-15.371-7.918-27.016-13.974-38.195 3.261-15.837 3.726-34.469 11.179-48.443 6.521-12.576 18.632-19.098 27.016-29.811 2.795-3.726 2.795-8.85 5.59-12.11 9.316-9.316 18.632-19.098 28.879-27.482 4.658-3.726 10.247 0 17.234-1.397 2.329-8.384 11.645-15.837 20.495-13.508 3.726 0.932 11.179-8.85 13.508-9.782 3.726-1.397 1.863 3.726 1.863 6.987 8.85-6.987 20.961-10.713 32.14-14.906" fill="#edbbba" fill-rule="nonzero" stroke="none" stroke-width="1" stroke-linecap="butt" stroke-linejoin="miter" stroke-miterlimit="10" stroke-dasharray="" stroke-dashoffset="0" font-family="none" font-weight="none" font-size="none" text-anchor="none" style="mix-blend-mode: normal" data-fill-palette-color="tertiary"></path></g><g transform="matrix(1,0,0,1,64,135.18377693282636)"><svg viewBox="0 0 192 89.63244613434729" height="89.63244613434729" width="192"><g><svg viewBox="0 0 192 89.63244613434729" height="89.63244613434729" width="192"><g><svg viewBox="0 0 192 89.63244613434729" height="89.63244613434729" width="192"><g id="textblocktransform"><svg viewBox="0 0 192 89.63244613434729" height="89.63244613434729" width="192" id="textblock"><g><svg viewBox="0 0 192 89.63244613434729" height="89.63244613434729" width="192"><g transform="matrix(1,0,0,1,0,0)"><svg width="192" viewBox="1.7999999523162842 -54.400001525878906 118.33999633789062 55.25" height="89.63244613434729" data-palette-color="#edbbba"><path d="M24.75-18.6Q28.15-18.05 30.53-16.07 32.9-14.1 32.9-10.4L32.9-10.4Q32.9-7.05 30.9-4.5 28.9-1.95 25.45-0.55 22 0.85 17.85 0.85L17.85 0.85Q15.5 0.85 13.38 0.4 11.25-0.05 9.7-0.75L9.7-0.75Q9.1 0.15 7.2 0.15L7.2 0.15Q6.4 0.15 5.48 0.05 4.55-0.05 4.05-0.25L4.05-0.25Q4.7-1.2 4.95-1.95 5.2-2.7 5.6-4.3L5.6-4.3Q7.1-10.55 9.18-20.48 11.25-30.4 11.25-31.95L11.25-31.95Q11.25-32.45 11-32.6 10.75-32.75 10.1-32.75L10.1-32.75Q8.8-32.75 6.5-32.4L6.5-32.4Q3.9-32.1 3.25-32.1L3.25-32.1Q2.5-32.1 2.15-32.3 1.8-32.5 1.8-33.05L1.8-33.05Q1.8-33.5 2.05-34.4 2.3-35.3 2.55-35.7L2.55-35.7Q2.65-35.65 3.03-35.43 3.4-35.2 4.17-35.1 4.95-35 6.25-35L6.25-35 17.8-35Q24.8-35 29-32.8 33.2-30.6 33.2-26.4L33.2-26.4Q33.2-20.6 24.75-18.6L24.75-18.6ZM17.65-1.8Q22.65-1.8 25.2-4.17 27.75-6.55 27.75-10.65L27.75-10.65Q27.75-13.8 26.15-15.3 24.55-16.8 21.05-16.8L21.05-16.8Q18.75-16.8 17.15-16.6L17.15-16.6Q16.75-17 16.45-17.65 16.15-18.3 16.15-19L16.15-19Q16.15-19.65 16.45-19.8L16.45-19.8Q16.85-19.75 18.03-19.68 19.2-19.6 19.9-19.6L19.9-19.6Q22.15-19.6 24-20.55 25.85-21.5 26.95-23.2 28.05-24.9 28.05-27.05L28.05-27.05Q28.05-29.95 25.95-31.38 23.85-32.8 19.85-32.8L19.85-32.8Q18.1-32.8 17.23-32.43 16.35-32.05 15.88-31 15.4-29.95 14.95-27.7L14.95-27.7Q11.5-10.4 10.45-3.9L10.45-3.9Q13.35-1.8 17.65-1.8L17.65-1.8ZM68.9-18.15Q69.55-17.9 69.55-17.1L69.55-17.1Q69.55-15.7 68.2-14.43 66.85-13.15 64.67-12.35 62.5-11.55 60.2-11.55L60.2-11.55Q58.4-11.55 56.5-12.1L56.5-12.1Q56.45-11.75 56.35-11.33 56.25-10.9 56.15-10.3L56.15-10.3Q56-9.5 55.57-7.35 55.15-5.2 55.05-4.3L55.05-4.3Q54.65-3.45 53.35-2.33 52.05-1.2 50.3-0.4 48.55 0.4 46.85 0.4L46.85 0.4Q45.2 0.4 43.5-0.4 41.8-1.2 40.67-2.58 39.55-3.95 39.55-5.55L39.55-5.55Q40.25-8.25 40.6-10 40.95-11.75 41.45-15L41.45-15Q41.65-16.2 43.07-17.57 44.5-18.95 46.57-19.85 48.65-20.75 50.65-20.75L50.65-20.75 51.3-20.75Q51.45-21.65 52-22.08 52.55-22.5 53.65-22.5L53.65-22.5Q55.3-22.5 55.75-21.85L55.75-21.85Q55.25-19.75 55.25-18.85L55.25-18.85Q55.25-16.6 56.87-15.3 58.5-14 61.4-14L61.4-14Q63.85-14 65.9-15 67.95-16 68.9-18.15L68.9-18.15ZM47.35-2.3Q48.35-2.3 49.4-3.03 50.45-3.75 50.8-4.65L50.8-4.65Q51.3-7.35 51.75-9.25L51.75-9.25Q51.9-9.95 52.22-11.5 52.55-13.05 52.75-14.3L52.75-14.3Q51.5-15.55 51.2-17.3L51.2-17.3Q51.2-17.5 51.12-17.65 51.05-17.8 50.9-17.85L50.9-17.85Q50.6-17.95 50.05-17.95L50.05-17.95Q48.35-17.95 47.25-16.98 46.15-16 45.85-14.45L45.85-14.45Q44.8-9.55 43.95-5.7L43.95-5.7Q44-4.15 45.1-3.23 46.2-2.3 47.35-2.3L47.35-2.3ZM91.09-54.4Q94.8-54.4 97.05-52.58 99.3-50.75 100.2-48.25 101.09-45.75 101.09-43.5L101.09-43.5 100.75-42.75Q99.59-46.25 97.5-47.83 95.4-49.4 91.95-49.4L91.95-49.4Q84.8-49.4 80.09-42.78 75.4-36.15 72.59-22L72.59-22Q72.3-20.5 71.25-15.4L71.25-15.4 70.7-12.9Q72.95-15.8 75.72-18.32 78.5-20.85 79.7-20.85L79.7-20.85Q80.4-20.85 81.84-20.1 83.3-19.35 83.3-19L83.3-19Q82.34-15.65 81.34-11.1 80.34-6.55 80.34-4.65L80.34-4.65Q80.34-2 82.84-2L82.84-2Q84.9-2 87.07-3.5 89.25-5 91-7.25 92.75-9.5 93.45-11.55L93.45-11.55Q93.8-11.4 94-11.18 94.2-10.95 94.2-10.4L94.2-10.4Q94.2-9.85 94.05-9.25L94.05-9.25Q93.59-7.35 91.55-5.03 89.5-2.7 86.7-1.05 83.9 0.6 81.15 0.6L81.15 0.6Q78.65 0.6 77.3-0.85 75.95-2.3 75.95-4.9L75.95-4.9Q75.95-6.7 76.5-9.15 77.05-11.6 78.2-16.05L78.2-16.05Q78.15-16.25 78-16.35 77.84-16.45 77.7-16.45L77.7-16.45Q77.15-16.45 75.62-15.2 74.09-13.95 72.45-12 70.8-10.05 69.9-8.05L69.9-8.05Q69.7-7.25 69.25-4.4L69.25-4.4 68.7-1.45Q68.5-0.3 68.27-0.05 68.05 0.2 67.45 0.2L67.45 0.2Q66.2 0.2 65.09-0.05 64-0.3 64.05-0.75L64.05-0.75 64.4-2.65Q65.84-9.25 66.4-11.88 66.95-14.5 67.2-15.85L67.2-15.85Q67.55-17.9 68.34-22.05L68.34-22.05Q70.5-33.35 74.09-40.6 77.7-47.85 82.05-51.13 86.4-54.4 91.09-54.4L91.09-54.4ZM119.19-11.2Q119.64-11.2 119.89-10.88 120.14-10.55 120.14-10.05L120.14-10.05Q120.14-8.7 118.47-6.08 116.79-3.45 113.99-1.43 111.19 0.6 107.79 0.6L107.79 0.6Q105.19 0.6 103.77-0.68 102.34-1.95 102.34-4.05L102.34-4.05Q102.34-5.3 102.82-7.15 103.29-9 104.14-11.8L104.14-11.8Q104.94-14.4 105.44-16.45L105.44-16.45Q105.39-16.75 105.04-16.75L105.04-16.75Q104.34-16.75 102.34-14.95 100.34-13.15 98.39-10.9 96.44-8.65 95.99-7.55L95.99-7.55Q95.09-3.5 94.89-2.18 94.69-0.85 94.64-0.7L94.64-0.7Q94.59-0.55 94.54-0.33 94.49-0.1 94.42-0.05 94.34 0 94.19 0L94.19 0Q93.44 0 91.84-0.1 90.24-0.2 90.24-0.4L90.24-0.4Q90.54-2.2 91.79-7.9L91.79-7.9Q92.04-9.3 92.04-9.25L92.04-9.25 94.29-20.25Q94.34-20.6 94.52-20.68 94.69-20.75 95.24-20.75L95.24-20.75Q97.59-20.75 98.64-20L98.64-20Q98.59-19.8 98.09-17.53 97.59-15.25 96.64-11.75L96.64-11.75Q99.44-15.15 102.39-17.9 105.34-20.65 106.39-20.65L106.39-20.65Q106.94-20.65 108.62-20.1 110.29-19.55 110.39-19.2L110.39-19.2 109.49-15.8Q108.19-11.15 107.54-8.4 106.89-5.65 106.89-4.2L106.89-4.2Q106.89-1.9 109.04-1.9L109.04-1.9Q110.79-1.9 112.87-3.28 114.94-4.65 116.67-6.83 118.39-9 119.19-11.2L119.19-11.2Z" opacity="1" transform="matrix(1,0,0,1,0,0)" fill="#edbbba" class="undefined-text-0" data-fill-palette-color="primary" id="text-0"></path></svg></g></svg></g></svg></g></svg></g><g></g></svg></g></svg></g></svg></g><defs></defs></svg><rect width="320" height="360" fill="none" stroke="none" visibility="hidden"></rect></g></svg></g></svg>